<?xml version="1.0" encoding="UTF-8" standalone="no"?>
<!DOCTYPE svg PUBLIC "-//W3C//DTD SVG 1.1//EN" "http://www.w3.org/Graphics/SVG/1.1/DTD/svg11.dtd">
<!-- Created with Vectornator (http://vectornator.io/) -->
<svg height="100%" stroke-miterlimit="10" style="fill-rule:nonzero;clip-rule:evenodd;stroke-linecap:round;stroke-linejoin:round;" version="1.1" viewBox="0 0 1024 1024" width="100%" xml:space="preserve" xmlns="http://www.w3.org/2000/svg" xmlns:vectornator="http://vectornator.io" xmlns:xlink="http://www.w3.org/1999/xlink">
<defs/>
<g id="Layer-1" vectornator:layerName="Layer 1">
<path d="M255.832 0L768.168 0C909.46 0 1024 114.54 1024 255.832L1024 768.168C1024 909.46 909.46 1024 768.168 1024L255.832 1024C114.54 1024 0 909.46 0 768.168L0 255.832C0 114.54 114.54 0 255.832 0Z" fill="#ff5252" fill-rule="nonzero" opacity="1" stroke="none"/>
</g>
<g id="Layer-2" vectornator:layerName="Layer 2">
<path d="M502.792 555.285C477.438 521.975 313.475 888.565 243.547 846.411C194.477 816.831 323.865 384.439 357.158 319.061C367.779 298.204 412.74 170.71 453.912 191.296C551.652 240.166 610.927 289.846 671.867 392.265C703.832 445.987 729.375 500.033 758.471 554.937C952.939 921.888 622.69 712.802 502.792 555.285Z" fill="#ffffff" fill-rule="nonzero" opacity="1" stroke="#000000" stroke-linecap="butt" stroke-linejoin="round" stroke-width="0.1"/>
</g>
</svg>
